<?xml version="1.0" encoding="UTF-8"?>
<svg id="Layer_1" xmlns="http://www.w3.org/2000/svg" version="1.1" xmlns:xlink="http://www.w3.org/1999/xlink" viewBox="0 0 691.04 265.2">
  <!-- Generator: Adobe Illustrator 29.0.1, SVG Export Plug-In . SVG Version: 2.1.0 Build 192)  -->
  <defs>
    <style>
      .st0 {
        fill: #fff;
      }

      .st1 {
        fill: #1d1c4f;
      }

      .st2 {
        fill: url(#linear-gradient);
      }
    </style>
    <linearGradient id="linear-gradient" x1="90.77" y1="265.2" x2="90.77" y2="80.5" gradientUnits="userSpaceOnUse">
      <stop offset="0" stop-color="#14245d"/>
      <stop offset="1" stop-color="#0089cf"/>
    </linearGradient>
  </defs>
  <path class="st2" d="M181.54,174.43c0,50.13-40.64,90.77-90.77,90.77S0,224.56,0,174.43C0,121.17,35.62,74.37,61.36,41.56,79.74,18.11,90.77,0,90.77,0c0,0,10.65,16.06,28.88,38.86,25.81,32.31,61.9,80.46,61.9,135.57Z"/>
  <path class="st1" d="M161.33,231.52c-16.62,20.54-42.06,33.67-70.56,33.67-5.94,0-11.73-.57-17.35-1.66-21.09-13.75-43.91-35.54-43.91-65.46,0-24.85,12.8-45.6,29.5-65.48,20.65-24.6,46.06-47.87,46.06-75.93S97.39,10.37,90.67.27c.56.68,1.13,1.38,1.72,2.12,2.32,3.39,7.11,10.21,13.96,19.33,14.6,22.59,30.02,55.21,30.02,92.16,0,43.18-42.63,56.13-42.63,92.77,0,44.86,48.55,43.15,67.58,24.88Z"/>
  <g>
    <path class="st0" d="M313.16,163.15c0,10.24-3.69,18.4-11.07,24.49-7.38,6.09-17.86,9.13-31.44,9.13-12.18,0-23.06-2.32-32.65-6.95v-22.79c5.5,2.37,11.18,4.55,17.05,6.55,5.87,2,11.72,2.99,17.54,2.99s10.32-1.16,12.85-3.47c2.53-2.32,3.8-5.25,3.8-8.81,0-2.91-1-5.39-2.99-7.43-2-2.05-4.66-3.96-8-5.74-3.34-1.78-7.17-3.69-11.48-5.74-2.69-1.29-5.6-2.83-8.73-4.61-3.13-1.78-6.12-3.99-8.97-6.63-2.86-2.64-5.2-5.84-7.03-9.62-1.83-3.77-2.75-8.3-2.75-13.58,0-10.34,3.5-18.4,10.51-24.16,7-5.76,16.54-8.65,28.61-8.65,6.03,0,11.74.7,17.13,2.1,5.39,1.4,11.1,3.39,17.13,5.98l-7.92,19.07c-5.28-2.15-10.02-3.82-14.22-5.01-4.2-1.18-8.51-1.78-12.93-1.78-4.63,0-8.19,1.08-10.67,3.23-2.48,2.16-3.72,4.96-3.72,8.4,0,4.1,1.83,7.33,5.5,9.7,3.66,2.37,9.1,5.28,16.32,8.73,5.92,2.8,10.96,5.71,15.11,8.73,4.15,3.02,7.35,6.57,9.62,10.67,2.26,4.1,3.39,9.16,3.39,15.19Z"/>
    <path class="st0" d="M408.04,195.15l-8.4-27.48h-42.02l-8.4,27.48h-26.34l40.73-115.88h29.9l40.89,115.88h-26.34ZM393.81,147.15l-8.4-26.83c-.54-1.83-1.24-4.15-2.1-6.95-.86-2.8-1.72-5.66-2.59-8.57-.86-2.91-1.56-5.44-2.1-7.6-.54,2.16-1.27,4.82-2.18,8-.92,3.18-1.78,6.2-2.59,9.05-.81,2.86-1.43,4.88-1.86,6.06l-8.24,26.83h30.06Z"/>
    <path class="st0" d="M489.01,79.75c14.87,0,25.72,3.21,32.57,9.62,6.84,6.41,10.26,15.22,10.26,26.43,0,6.79-1.4,13.09-4.2,18.91-2.8,5.82-7.46,10.5-13.98,14.06-6.52,3.56-15.38,5.33-26.59,5.33h-10.51v41.05h-24.41v-115.4h36.85ZM487.72,99.79h-11.15v34.26h8.08c6.89,0,12.36-1.37,16.4-4.12,4.04-2.75,6.06-7.19,6.06-13.33,0-11.21-6.46-16.81-19.39-16.81Z"/>
    <path class="st0" d="M600.04,195.15h-52.53v-13.9l14.06-6.46v-74.67l-14.06-6.46v-13.9h52.53v13.9l-14.06,6.46v74.67l14.06,6.46v13.9Z"/>
    <path class="st0" d="M691.04,163.15c0,10.24-3.69,18.4-11.07,24.49-7.38,6.09-17.86,9.13-31.44,9.13-12.18,0-23.06-2.32-32.65-6.95v-22.79c5.5,2.37,11.18,4.55,17.05,6.55,5.87,2,11.72,2.99,17.54,2.99s10.32-1.16,12.85-3.47c2.53-2.32,3.8-5.25,3.8-8.81,0-2.91-1-5.39-2.99-7.43-2-2.05-4.66-3.96-8-5.74-3.34-1.78-7.17-3.69-11.48-5.74-2.69-1.29-5.6-2.83-8.73-4.61-3.13-1.78-6.12-3.99-8.97-6.63-2.86-2.64-5.2-5.84-7.03-9.62-1.83-3.77-2.75-8.3-2.75-13.58,0-10.34,3.5-18.4,10.51-24.16,7-5.76,16.54-8.65,28.61-8.65,6.03,0,11.74.7,17.13,2.1,5.39,1.4,11.1,3.39,17.13,5.98l-7.92,19.07c-5.28-2.15-10.02-3.82-14.22-5.01-4.2-1.18-8.51-1.78-12.93-1.78-4.63,0-8.19,1.08-10.67,3.23-2.48,2.16-3.72,4.96-3.72,8.4,0,4.1,1.83,7.33,5.5,9.7,3.66,2.37,9.1,5.28,16.32,8.73,5.92,2.8,10.96,5.71,15.11,8.73,4.15,3.02,7.35,6.57,9.62,10.67,2.26,4.1,3.39,9.16,3.39,15.19Z"/>
  </g>
  <g>
    <path class="st0" d="M247.3,242.08c0,1.29-.47,2.31-1.41,3.04-.94.73-2.23,1.1-3.86,1.1-.8,0-1.55-.06-2.25-.19-.69-.13-1.29-.32-1.78-.56v-2.08c.54.24,1.18.47,1.92.66s1.48.3,2.25.3c.98,0,1.71-.19,2.2-.57.49-.38.74-.89.74-1.53,0-.45-.11-.83-.33-1.13-.22-.31-.57-.59-1.05-.86-.48-.27-1.11-.55-1.89-.85-.71-.27-1.34-.59-1.9-.96-.56-.37-.99-.82-1.31-1.37-.31-.54-.47-1.21-.47-2,0-1.2.44-2.14,1.31-2.82.87-.68,2.01-1.02,3.43-1.02.79,0,1.52.08,2.19.24.67.16,1.32.37,1.93.63l-.69,1.82c-.56-.23-1.13-.42-1.7-.57-.58-.15-1.17-.23-1.79-.23-.8,0-1.42.18-1.84.53s-.63.82-.63,1.39c0,.45.1.83.31,1.13.2.31.53.59.98.84.45.25,1.04.52,1.78.81.82.33,1.51.67,2.09,1.03.58.36,1.02.8,1.32,1.31.3.51.45,1.15.45,1.91Z"/>
    <path class="st0" d="M259.38,235.02v11h-1.74l-.31-1.45h-.1c-.35.57-.84.99-1.47,1.26-.63.27-1.29.4-1.98.4-1.29,0-2.28-.32-2.96-.95-.68-.63-1.02-1.65-1.02-3.05v-7.21h2.18v6.88c0,.86.18,1.5.54,1.92.36.42.92.63,1.68.63,1.13,0,1.91-.33,2.35-.99s.65-1.62.65-2.87v-5.57h2.16Z"/>
    <path class="st0" d="M268.27,234.82c1.33,0,2.4.48,3.21,1.43.8.95,1.2,2.37,1.2,4.27s-.41,3.28-1.23,4.26c-.82.97-1.89,1.46-3.21,1.46-.83,0-1.51-.15-2.04-.46s-.95-.67-1.27-1.09h-.14c.03.25.06.53.09.87.03.33.05.63.05.89v4.49h-2.16v-15.9h1.76l.31,1.47h.1c.31-.46.73-.86,1.26-1.18.52-.33,1.21-.49,2.07-.49ZM267.76,236.59c-1.02,0-1.74.29-2.16.88-.42.59-.64,1.48-.65,2.69v.33c0,1.28.2,2.26.61,2.94.41.68,1.16,1.02,2.25,1.02.9,0,1.57-.37,2-1.1.44-.73.65-1.69.65-2.88s-.22-2.14-.66-2.84c-.44-.69-1.12-1.04-2.03-1.04Z"/>
    <path class="st0" d="M279.76,234.82c1.44,0,2.58.45,3.41,1.34.83.89,1.25,2.11,1.25,3.64v1.18h-7.39c.03,1.13.32,1.99.89,2.59.56.6,1.36.9,2.38.9.71,0,1.34-.06,1.89-.19.55-.13,1.12-.32,1.71-.58v1.8c-.56.26-1.12.45-1.67.56-.56.12-1.23.17-2,.17-1.06,0-2-.21-2.82-.63-.82-.42-1.45-1.05-1.91-1.88-.46-.83-.68-1.86-.68-3.1s.21-2.29.62-3.14c.41-.86.99-1.51,1.74-1.97.74-.46,1.61-.68,2.6-.68ZM279.76,236.49c-.78,0-1.4.25-1.87.76s-.74,1.22-.83,2.14h5.19c-.01-.86-.22-1.55-.62-2.09-.4-.54-1.02-.81-1.87-.81Z"/>
    <path class="st0" d="M292.54,234.82c.44,0,.84.03,1.2.1l-.22,2.02c-.35-.1-.72-.14-1.1-.14-.56,0-1.08.14-1.55.41-.48.27-.86.66-1.15,1.17s-.44,1.13-.44,1.85v5.8h-2.16v-11h1.72l.29,1.96h.08c.34-.59.8-1.09,1.37-1.52.57-.43,1.23-.64,1.98-.64Z"/>
    <path class="st0" d="M310.42,246.02l-1.55-4.21h-5.63l-1.55,4.21h-2.29l5.53-14.64h2.29l5.51,14.64h-2.31ZM308.26,239.9l-1.47-4.1c-.05-.15-.13-.37-.22-.67-.1-.3-.19-.61-.29-.94-.1-.33-.17-.59-.22-.8-.11.42-.23.87-.37,1.35s-.24.83-.33,1.06l-1.47,4.1h4.37Z"/>
    <path class="st0" d="M316.61,246.02h-2.16v-15.52h2.16v15.52Z"/>
    <path class="st0" d="M325.49,234.82c1.33,0,2.4.48,3.21,1.43.8.95,1.2,2.37,1.2,4.27s-.41,3.28-1.23,4.26c-.82.97-1.89,1.46-3.21,1.46-.83,0-1.51-.15-2.04-.46s-.95-.67-1.27-1.09h-.14c.03.25.06.53.09.87.03.33.05.63.05.89v4.49h-2.16v-15.9h1.76l.31,1.47h.1c.31-.46.73-.86,1.26-1.18.52-.33,1.21-.49,2.07-.49ZM324.98,236.59c-1.02,0-1.74.29-2.16.88-.42.59-.64,1.48-.65,2.69v.33c0,1.28.2,2.26.61,2.94.41.68,1.16,1.02,2.25,1.02.9,0,1.57-.37,2-1.1.44-.73.65-1.69.65-2.88s-.22-2.14-.66-2.84c-.44-.69-1.12-1.04-2.03-1.04Z"/>
    <path class="st0" d="M334.82,230.51v4.14c0,.34-.01.68-.04,1.02-.03.34-.05.62-.08.84h.14c.35-.56.83-.98,1.42-1.26s1.24-.42,1.93-.42c1.29,0,2.28.32,2.97.96.69.64,1.03,1.66,1.03,3.06v7.17h-2.14v-6.86c0-1.72-.76-2.57-2.27-2.57-1.13,0-1.91.34-2.33,1.02s-.63,1.64-.63,2.88v5.53h-2.16v-15.52h2.16Z"/>
    <path class="st0" d="M349.79,234.82c1.37,0,2.41.3,3.09.91s1.03,1.55,1.03,2.85v7.45h-1.53l-.43-1.53h-.08c-.48.6-.98,1.04-1.5,1.32-.52.28-1.25.42-2.17.42-.99,0-1.82-.27-2.47-.81-.65-.54-.98-1.38-.98-2.52s.43-1.98,1.28-2.56c.85-.58,2.15-.9,3.89-.95l1.88-.06v-.61c0-.8-.18-1.37-.55-1.7-.37-.33-.89-.5-1.55-.5-.56,0-1.1.08-1.61.25-.52.16-1.01.36-1.49.59l-.69-1.57c.52-.27,1.11-.5,1.79-.68s1.38-.28,2.11-.28ZM351.77,240.74l-1.47.04c-1.25.05-2.12.26-2.6.63-.48.37-.73.87-.73,1.51,0,.57.17.99.51,1.25s.78.39,1.33.39c.84,0,1.55-.24,2.11-.72.56-.48.85-1.19.85-2.14v-.96Z"/>
    <path class="st0" d="M366.87,231.45c1.91,0,3.29.38,4.17,1.15s1.31,1.84,1.31,3.22c0,.82-.18,1.58-.54,2.29s-.96,1.28-1.81,1.72c-.84.44-1.99.66-3.43.66h-1.57v5.53h-2.21v-14.58h4.08ZM366.71,233.3h-1.72v5.33h1.33c1.24,0,2.17-.21,2.81-.62.63-.41.95-1.12.95-2.11,0-.87-.27-1.52-.82-1.95-.54-.43-1.39-.64-2.55-.64Z"/>
    <path class="st0" d="M379.37,234.82c1.44,0,2.58.45,3.41,1.34.83.89,1.25,2.11,1.25,3.64v1.18h-7.39c.03,1.13.32,1.99.89,2.59.56.6,1.36.9,2.38.9.71,0,1.34-.06,1.89-.19.55-.13,1.12-.32,1.7-.58v1.8c-.56.26-1.12.45-1.67.56s-1.23.17-2,.17c-1.06,0-2-.21-2.82-.63-.82-.42-1.45-1.05-1.91-1.88-.46-.83-.68-1.86-.68-3.1s.21-2.29.62-3.14c.41-.86.99-1.51,1.74-1.97.74-.46,1.61-.68,2.6-.68ZM379.37,236.49c-.78,0-1.4.25-1.87.76-.47.5-.75,1.22-.83,2.14h5.18c-.01-.86-.22-1.55-.62-2.09s-1.02-.81-1.87-.81Z"/>
    <path class="st0" d="M390.68,244.47c.61,0,1.16-.09,1.65-.27v1.63c-.23.11-.54.2-.94.28-.39.08-.79.11-1.18.11-.6,0-1.15-.1-1.64-.31s-.9-.56-1.19-1.06-.45-1.21-.45-2.1v-6.08h-1.53v-.98l1.61-.82.75-2.33h1.33v2.47h3.14v1.65h-3.14v6.04c0,.6.15,1.04.44,1.33s.68.43,1.15.43Z"/>
    <path class="st0" d="M399.97,234.82c.44,0,.84.03,1.2.1l-.22,2.02c-.35-.1-.72-.14-1.1-.14-.56,0-1.08.14-1.55.41-.48.27-.86.66-1.15,1.17s-.44,1.13-.44,1.85v5.8h-2.16v-11h1.71l.29,1.96h.08c.34-.59.8-1.09,1.37-1.52.57-.43,1.23-.64,1.98-.64Z"/>
    <path class="st0" d="M412.5,240.51c0,1.82-.47,3.23-1.41,4.23-.94.99-2.21,1.49-3.8,1.49-.99,0-1.87-.22-2.64-.66-.77-.44-1.37-1.09-1.82-1.94-.44-.85-.66-1.89-.66-3.11,0-1.82.46-3.23,1.39-4.22.93-.99,2.19-1.48,3.8-1.48,1.01,0,1.9.22,2.66.66.77.44,1.37,1.09,1.82,1.93.44.84.66,1.88.66,3.1ZM404.4,240.51c0,1.24.23,2.21.7,2.9s1.21,1.04,2.24,1.04,1.77-.35,2.23-1.04.7-1.66.7-2.9-.23-2.22-.7-2.89-1.22-1.01-2.26-1.01-1.76.34-2.23,1.01-.69,1.64-.69,2.89Z"/>
    <path class="st0" d="M417.4,246.02h-2.16v-15.52h2.16v15.52Z"/>
    <path class="st0" d="M425.12,234.82c1.44,0,2.58.45,3.41,1.34.83.89,1.25,2.11,1.25,3.64v1.18h-7.39c.03,1.13.32,1.99.89,2.59.56.6,1.36.9,2.38.9.71,0,1.34-.06,1.89-.19.55-.13,1.12-.32,1.7-.58v1.8c-.56.26-1.12.45-1.67.56s-1.23.17-2,.17c-1.06,0-2-.21-2.82-.63-.82-.42-1.45-1.05-1.91-1.88-.46-.83-.68-1.86-.68-3.1s.21-2.29.62-3.14c.41-.86.99-1.51,1.74-1.97.74-.46,1.61-.68,2.6-.68ZM425.12,236.49c-.78,0-1.4.25-1.87.76-.47.5-.75,1.22-.83,2.14h5.18c-.01-.86-.22-1.55-.62-2.09s-1.02-.81-1.87-.81Z"/>
    <path class="st0" d="M441.94,235.02v11h-1.74l-.31-1.45h-.1c-.35.57-.84.99-1.47,1.26-.63.27-1.29.4-1.98.4-1.29,0-2.28-.32-2.96-.95-.68-.63-1.02-1.65-1.02-3.05v-7.21h2.18v6.88c0,.86.18,1.5.54,1.92.36.42.92.63,1.68.63,1.13,0,1.91-.33,2.35-.99.44-.66.65-1.62.65-2.87v-5.57h2.16Z"/>
    <path class="st0" d="M457.66,234.82c1.24,0,2.17.32,2.8.96.63.64.94,1.67.94,3.08v7.17h-2.16v-6.88c0-1.7-.69-2.55-2.06-2.55-.98,0-1.68.3-2.1.91-.42.61-.63,1.47-.63,2.6v5.92h-2.14v-6.88c0-1.7-.69-2.55-2.08-2.55-1.03,0-1.75.33-2.13,1s-.58,1.63-.58,2.88v5.55h-2.16v-11h1.71l.31,1.47h.12c.34-.57.8-.99,1.38-1.27.58-.27,1.19-.41,1.85-.41,1.69,0,2.8.59,3.35,1.78h.16c.35-.6.84-1.04,1.47-1.34.63-.29,1.29-.44,1.98-.44Z"/>
    <path class="st0" d="M474.75,246.02h-5.66v-1.27l1.74-.51v-11.01l-1.74-.53v-1.27h5.66v1.27l-1.72.53v11.01l1.72.51v1.27Z"/>
    <path class="st0" d="M482.82,234.82c1.28,0,2.26.32,2.94.96s1.02,1.67,1.02,3.08v7.17h-2.14v-6.86c0-1.72-.76-2.57-2.27-2.57-1.12,0-1.89.33-2.32,1-.43.67-.64,1.63-.64,2.88v5.55h-2.16v-11h1.71l.31,1.47h.12c.35-.57.84-.99,1.46-1.27.62-.27,1.28-.41,1.97-.41Z"/>
    <path class="st0" d="M495.47,236.67h-2.72v9.35h-2.16v-9.35h-1.86v-1.02l1.86-.67v-.69c0-1.4.32-2.4.97-2.99s1.55-.89,2.71-.89c.48,0,.91.04,1.31.12s.73.17,1,.27l-.55,1.65c-.23-.07-.49-.13-.78-.19-.29-.06-.58-.09-.88-.09-1.08,0-1.61.72-1.61,2.14v.72h2.72v1.65Z"/>
    <path class="st0" d="M502.82,234.82c.44,0,.84.03,1.2.1l-.22,2.02c-.35-.1-.72-.14-1.1-.14-.56,0-1.08.14-1.55.41-.48.27-.86.66-1.15,1.17s-.44,1.13-.44,1.85v5.8h-2.16v-11h1.71l.29,1.96h.08c.34-.59.8-1.09,1.37-1.52.57-.43,1.23-.64,1.98-.64Z"/>
    <path class="st0" d="M509.93,234.82c1.37,0,2.41.3,3.09.91s1.03,1.55,1.03,2.85v7.45h-1.53l-.43-1.53h-.08c-.48.6-.98,1.04-1.5,1.32-.52.28-1.25.42-2.17.42-.99,0-1.82-.27-2.47-.81-.65-.54-.98-1.38-.98-2.52s.42-1.98,1.28-2.56,2.15-.9,3.89-.95l1.88-.06v-.61c0-.8-.18-1.37-.55-1.7-.37-.33-.89-.5-1.55-.5-.56,0-1.1.08-1.61.25-.52.16-1.01.36-1.49.59l-.69-1.57c.52-.27,1.11-.5,1.79-.68s1.38-.28,2.11-.28ZM511.91,240.74l-1.47.04c-1.25.05-2.12.26-2.6.63-.48.37-.72.87-.72,1.51,0,.57.17.99.51,1.25.34.26.78.39,1.33.39.84,0,1.55-.24,2.11-.72.56-.48.85-1.19.85-2.14v-.96Z"/>
    <path class="st0" d="M524.69,242.92c0,1.09-.39,1.91-1.17,2.47-.78.56-1.88.84-3.3.84-.78,0-1.44-.05-1.99-.16s-1.06-.28-1.52-.51v-1.9c.48.23,1.04.44,1.68.62.65.18,1.28.28,1.89.28.82,0,1.41-.13,1.77-.39.36-.26.54-.61.54-1.04,0-.25-.07-.47-.21-.66-.14-.2-.39-.4-.77-.61-.37-.21-.92-.45-1.64-.72-.71-.27-1.3-.55-1.79-.84-.48-.28-.85-.63-1.11-1.02-.26-.39-.39-.89-.39-1.49,0-.95.38-1.68,1.15-2.19s1.79-.77,3.05-.77c.67,0,1.3.07,1.89.2s1.17.33,1.73.57l-.72,1.65c-.48-.2-.97-.38-1.47-.52-.5-.14-1.01-.21-1.53-.21-1.33,0-2,.39-2,1.16,0,.26.08.48.23.67.16.19.43.38.82.57s.93.42,1.62.69c.67.26,1.24.53,1.72.81.48.28.85.62,1.11,1.01.26.4.39.89.39,1.49Z"/>
    <path class="st0" d="M531.22,244.47c.61,0,1.16-.09,1.65-.27v1.63c-.23.11-.54.2-.94.28-.39.08-.79.11-1.18.11-.6,0-1.15-.1-1.64-.31s-.9-.56-1.19-1.06-.45-1.21-.45-2.1v-6.08h-1.53v-.98l1.61-.82.75-2.33h1.33v2.47h3.14v1.65h-3.14v6.04c0,.6.15,1.04.44,1.33s.68.43,1.15.43Z"/>
    <path class="st0" d="M540.51,234.82c.44,0,.84.03,1.2.1l-.22,2.02c-.35-.1-.72-.14-1.1-.14-.56,0-1.08.14-1.55.41-.48.27-.86.66-1.15,1.17s-.44,1.13-.44,1.85v5.8h-2.16v-11h1.71l.29,1.96h.08c.34-.59.8-1.09,1.37-1.52.57-.43,1.23-.64,1.98-.64Z"/>
    <path class="st0" d="M553.23,235.02v11h-1.74l-.31-1.45h-.1c-.35.57-.84.99-1.47,1.26-.63.27-1.29.4-1.98.4-1.29,0-2.28-.32-2.96-.95-.68-.63-1.02-1.65-1.02-3.05v-7.21h2.18v6.88c0,.86.18,1.5.54,1.92.36.42.92.63,1.68.63,1.13,0,1.91-.33,2.35-.99.44-.66.65-1.62.65-2.87v-5.57h2.16Z"/>
    <path class="st0" d="M561.05,246.23c-1.52,0-2.75-.45-3.68-1.36-.92-.91-1.39-2.33-1.39-4.28,0-1.36.22-2.46.67-3.31.45-.84,1.07-1.47,1.86-1.87.79-.4,1.69-.6,2.69-.6.61,0,1.19.06,1.73.18.54.12.98.27,1.34.45l-.65,1.76c-.38-.14-.78-.26-1.2-.38-.42-.12-.83-.17-1.23-.17-1.99,0-2.98,1.31-2.98,3.92,0,1.25.25,2.21.74,2.86s1.21.98,2.16.98c.6,0,1.14-.07,1.61-.2.48-.14.91-.31,1.31-.53v1.88c-.39.23-.82.4-1.29.51s-1.03.16-1.69.16Z"/>
    <path class="st0" d="M570.58,244.47c.61,0,1.16-.09,1.65-.27v1.63c-.23.11-.54.2-.94.28-.39.08-.79.11-1.18.11-.6,0-1.15-.1-1.64-.31s-.9-.56-1.19-1.06-.45-1.21-.45-2.1v-6.08h-1.53v-.98l1.61-.82.75-2.33h1.33v2.47h3.14v1.65h-3.14v6.04c0,.6.15,1.04.44,1.33s.68.43,1.15.43Z"/>
    <path class="st0" d="M583.92,235.02v11h-1.74l-.31-1.45h-.1c-.35.57-.84.99-1.47,1.26-.63.27-1.29.4-1.98.4-1.29,0-2.28-.32-2.96-.95-.68-.63-1.02-1.65-1.02-3.05v-7.21h2.18v6.88c0,.86.18,1.5.54,1.92.36.42.92.63,1.68.63,1.13,0,1.91-.33,2.35-.99.44-.66.65-1.62.65-2.87v-5.57h2.16Z"/>
    <path class="st0" d="M592.74,234.82c.44,0,.84.03,1.2.1l-.22,2.02c-.35-.1-.72-.14-1.1-.14-.56,0-1.08.14-1.55.41-.48.27-.86.66-1.15,1.17s-.44,1.13-.44,1.85v5.8h-2.16v-11h1.71l.29,1.96h.08c.34-.59.8-1.09,1.37-1.52.57-.43,1.23-.64,1.98-.64Z"/>
    <path class="st0" d="M599.9,234.82c1.44,0,2.58.45,3.41,1.34.83.89,1.25,2.11,1.25,3.64v1.18h-7.39c.03,1.13.32,1.99.89,2.59.56.6,1.36.9,2.38.9.71,0,1.34-.06,1.89-.19.55-.13,1.12-.32,1.7-.58v1.8c-.56.26-1.12.45-1.67.56s-1.23.17-2,.17c-1.06,0-2-.21-2.82-.63-.82-.42-1.45-1.05-1.91-1.88-.46-.83-.68-1.86-.68-3.1s.21-2.29.62-3.14c.41-.86.99-1.51,1.74-1.97.74-.46,1.61-.68,2.6-.68ZM599.9,236.49c-.78,0-1.4.25-1.87.76-.47.5-.75,1.22-.83,2.14h5.18c-.01-.86-.22-1.55-.62-2.09s-1.02-.81-1.87-.81Z"/>
    <path class="st0" d="M621.18,242.08c0,1.29-.47,2.31-1.41,3.04-.94.73-2.23,1.1-3.86,1.1-.8,0-1.55-.06-2.25-.19-.69-.13-1.29-.32-1.78-.56v-2.08c.54.24,1.18.47,1.92.66.74.2,1.48.3,2.25.3.98,0,1.72-.19,2.21-.57s.73-.89.73-1.53c0-.45-.11-.83-.33-1.13-.22-.31-.57-.59-1.05-.86-.48-.27-1.11-.55-1.89-.85-.71-.27-1.34-.59-1.9-.96-.56-.37-.99-.82-1.31-1.37-.31-.54-.47-1.21-.47-2,0-1.2.44-2.14,1.31-2.82.87-.68,2.01-1.02,3.43-1.02.79,0,1.52.08,2.2.24.67.16,1.32.37,1.93.63l-.69,1.82c-.56-.23-1.13-.42-1.7-.57-.58-.15-1.17-.23-1.79-.23-.8,0-1.42.18-1.84.53-.42.35-.63.82-.63,1.39,0,.45.1.83.31,1.13.2.31.53.59.98.84.45.25,1.04.52,1.78.81.82.33,1.51.67,2.09,1.03.58.36,1.02.8,1.32,1.31s.45,1.15.45,1.91Z"/>
    <path class="st0" d="M628.12,234.82c1.44,0,2.58.45,3.41,1.34.83.89,1.25,2.11,1.25,3.64v1.18h-7.39c.03,1.13.32,1.99.89,2.59.56.6,1.36.9,2.38.9.71,0,1.34-.06,1.89-.19.55-.13,1.12-.32,1.7-.58v1.8c-.56.26-1.12.45-1.67.56s-1.23.17-2,.17c-1.06,0-2-.21-2.82-.63-.82-.42-1.45-1.05-1.91-1.88-.46-.83-.68-1.86-.68-3.1s.21-2.29.62-3.14c.41-.86.99-1.51,1.74-1.97.74-.46,1.61-.68,2.6-.68ZM628.12,236.49c-.78,0-1.4.25-1.87.76-.47.5-.75,1.22-.83,2.14h5.18c-.01-.86-.22-1.55-.62-2.09s-1.02-.81-1.87-.81Z"/>
    <path class="st0" d="M640.9,234.82c.44,0,.84.03,1.2.1l-.22,2.02c-.35-.1-.72-.14-1.1-.14-.56,0-1.08.14-1.55.41-.48.27-.86.66-1.15,1.17s-.44,1.13-.44,1.85v5.8h-2.16v-11h1.71l.29,1.96h.08c.34-.59.8-1.09,1.37-1.52.57-.43,1.23-.64,1.98-.64Z"/>
    <path class="st0" d="M646.61,246.02l-4.16-11h2.29l2.29,6.43c.14.44.28.91.43,1.43.15.52.25.95.31,1.29h.08c.05-.34.16-.77.33-1.3.16-.52.31-1,.45-1.42l2.29-6.43h2.29l-4.18,11h-2.39Z"/>
    <path class="st0" d="M655.98,230.83c.33,0,.61.1.86.29.24.19.37.51.37.96s-.12.75-.37.95c-.25.2-.53.3-.86.3s-.63-.1-.88-.3c-.25-.2-.37-.51-.37-.95s.12-.77.37-.96c.24-.19.54-.29.88-.29ZM657.05,235.02v11h-2.16v-11h2.16Z"/>
    <path class="st0" d="M664.87,246.23c-1.52,0-2.75-.45-3.68-1.36-.92-.91-1.39-2.33-1.39-4.28,0-1.36.22-2.46.67-3.31.45-.84,1.07-1.47,1.86-1.87.79-.4,1.69-.6,2.69-.6.61,0,1.19.06,1.73.18.54.12.98.27,1.34.45l-.65,1.76c-.38-.14-.78-.26-1.2-.38-.42-.12-.83-.17-1.23-.17-1.99,0-2.98,1.31-2.98,3.92,0,1.25.25,2.21.74,2.86s1.21.98,2.16.98c.6,0,1.14-.07,1.61-.2.48-.14.91-.31,1.31-.53v1.88c-.39.23-.82.4-1.29.51s-1.03.16-1.69.16Z"/>
    <path class="st0" d="M674.77,234.82c1.44,0,2.58.45,3.41,1.34.83.89,1.25,2.11,1.25,3.64v1.18h-7.39c.03,1.13.32,1.99.89,2.59.56.6,1.36.9,2.38.9.71,0,1.34-.06,1.89-.19.55-.13,1.12-.32,1.7-.58v1.8c-.56.26-1.12.45-1.67.56s-1.23.17-2,.17c-1.06,0-2-.21-2.82-.63-.82-.42-1.45-1.05-1.91-1.88-.46-.83-.68-1.86-.68-3.1s.21-2.29.62-3.14c.41-.86.99-1.51,1.74-1.97.74-.46,1.61-.68,2.6-.68ZM674.77,236.49c-.78,0-1.4.25-1.87.76-.47.5-.75,1.22-.83,2.14h5.18c-.01-.86-.22-1.55-.62-2.09s-1.02-.81-1.87-.81Z"/>
    <path class="st0" d="M689.43,242.92c0,1.09-.39,1.91-1.17,2.47-.78.56-1.88.84-3.3.84-.78,0-1.44-.05-1.99-.16s-1.06-.28-1.52-.51v-1.9c.48.23,1.04.44,1.68.62.65.18,1.28.28,1.89.28.82,0,1.41-.13,1.77-.39.36-.26.54-.61.54-1.04,0-.25-.07-.47-.21-.66-.14-.2-.39-.4-.77-.61-.37-.21-.92-.45-1.64-.72-.71-.27-1.3-.55-1.79-.84-.48-.28-.85-.63-1.11-1.02-.26-.39-.39-.89-.39-1.49,0-.95.38-1.68,1.15-2.19s1.79-.77,3.05-.77c.67,0,1.3.07,1.89.2s1.17.33,1.73.57l-.72,1.65c-.48-.2-.97-.38-1.47-.52-.5-.14-1.01-.21-1.53-.21-1.33,0-2,.39-2,1.16,0,.26.08.48.23.67.16.19.43.38.82.57s.93.42,1.62.69c.67.26,1.24.53,1.72.81.48.28.85.62,1.11,1.01.26.4.39.89.39,1.49Z"/>
  </g>
</svg>