<?xml version="1.0" encoding="UTF-8"?>
<svg id="Layer_1" xmlns="http://www.w3.org/2000/svg" version="1.1" xmlns:xlink="http://www.w3.org/1999/xlink" viewBox="0 0 181.54 265.2">
  <!-- Generator: Adobe Illustrator 29.0.1, SVG Export Plug-In . SVG Version: 2.1.0 Build 192)  -->
  <defs>
    <style>
      .st0 {
        fill: #1d1c4f;
      }

      .st1 {
        fill: url(#linear-gradient);
      }
    </style>
    <linearGradient id="linear-gradient" x1="90.77" y1="265.2" x2="90.77" y2="80.5" gradientUnits="userSpaceOnUse">
      <stop offset="0" stop-color="#14245d"/>
      <stop offset="1" stop-color="#0089cf"/>
    </linearGradient>
  </defs>
  <path class="st1" d="M181.54,174.43c0,50.13-40.64,90.77-90.77,90.77S0,224.56,0,174.43C0,121.17,35.62,74.37,61.36,41.56,79.74,18.11,90.77,0,90.77,0c0,0,10.65,16.06,28.88,38.86,25.81,32.31,61.9,80.46,61.9,135.57Z"/>
  <path class="st0" d="M161.33,231.52c-16.62,20.54-42.06,33.67-70.56,33.67-5.94,0-11.73-.57-17.35-1.66-21.09-13.75-43.91-35.54-43.91-65.46,0-24.85,12.8-45.6,29.5-65.48,20.65-24.6,46.06-47.87,46.06-75.93S97.39,10.37,90.67.27c.56.68,1.13,1.38,1.72,2.12,2.32,3.39,7.11,10.21,13.96,19.33,14.6,22.59,30.02,55.21,30.02,92.16,0,43.18-42.63,56.13-42.63,92.77,0,44.86,48.55,43.15,67.58,24.88Z"/>
</svg>