<?xml version="1.0" encoding="UTF-8"?>
<svg id="Layer_1" xmlns="http://www.w3.org/2000/svg" version="1.1" xmlns:xlink="http://www.w3.org/1999/xlink" viewBox="0 0 166.52 43.5">
  <!-- Generator: Adobe Illustrator 29.0.1, SVG Export Plug-In . SVG Version: 2.1.0 Build 192)  -->
  <defs>
    <style>
      .st0 {
        fill: #1c1c4f;
      }

      .st1 {
        fill: url(#linear-gradient);
      }
    </style>
    <linearGradient id="linear-gradient" x1="14.89" y1="43.5" x2="14.89" y2="13.2" gradientUnits="userSpaceOnUse">
      <stop offset="0" stop-color="#14245d"/>
      <stop offset="1" stop-color="#0088cf"/>
    </linearGradient>
  </defs>
  <path class="st1" d="M29.78,28.61c0,8.22-6.67,14.89-14.89,14.89S0,36.83,0,28.61C0,19.87,5.84,12.2,10.06,6.82,13.08,2.97,14.89,0,14.89,0c0,0,1.75,2.63,4.74,6.37,4.23,5.3,10.15,13.2,10.15,22.24Z"/>
  <path class="st0" d="M26.46,37.97c-2.73,3.37-6.9,5.52-11.57,5.52-.97,0-1.92-.09-2.85-.27-3.46-2.26-7.2-5.83-7.2-10.74,0-4.08,2.1-7.48,4.84-10.74,3.39-4.04,7.55-7.85,7.55-12.45S15.97,1.7,14.87.05c.09.11.19.23.28.35.38.56,1.17,1.67,2.29,3.17,2.39,3.71,4.92,9.05,4.92,15.12,0,7.08-6.99,9.21-6.99,15.22,0,7.36,7.96,7.08,11.09,4.08Z"/>
  <g>
    <path d="M59.19,28.84c0,2.91-1.05,5.23-3.14,6.96-2.1,1.73-5.07,2.59-8.93,2.59-3.46,0-6.55-.66-9.27-1.97v-6.47c1.56.67,3.17,1.29,4.84,1.86,1.67.57,3.33.85,4.98.85s2.93-.33,3.65-.99c.72-.66,1.08-1.49,1.08-2.5,0-.83-.28-1.53-.85-2.11-.57-.58-1.32-1.12-2.27-1.63-.95-.5-2.04-1.05-3.26-1.63-.77-.37-1.59-.8-2.48-1.31-.89-.5-1.74-1.13-2.55-1.88-.81-.75-1.48-1.66-2-2.73-.52-1.07-.78-2.36-.78-3.86,0-2.94.99-5.23,2.98-6.86,1.99-1.64,4.7-2.46,8.13-2.46,1.71,0,3.34.2,4.87.6,1.53.4,3.15.96,4.87,1.7l-2.25,5.42c-1.5-.61-2.85-1.09-4.04-1.42-1.19-.34-2.42-.5-3.67-.5-1.32,0-2.33.31-3.03.92-.7.61-1.06,1.41-1.06,2.39,0,1.16.52,2.08,1.56,2.75,1.04.67,2.59,1.5,4.64,2.48,1.68.8,3.11,1.62,4.29,2.48,1.18.86,2.09,1.87,2.73,3.03.64,1.16.96,2.6.96,4.32Z"/>
    <path d="M86.14,37.93l-2.39-7.8h-11.94l-2.39,7.8h-7.48l11.57-32.92h8.49l11.61,32.92h-7.48ZM82.1,24.3l-2.39-7.62c-.15-.52-.35-1.18-.6-1.97-.25-.8-.49-1.61-.73-2.43-.25-.83-.44-1.55-.6-2.16-.15.61-.36,1.37-.62,2.27-.26.9-.5,1.76-.73,2.57-.23.81-.41,1.39-.53,1.72l-2.34,7.62h8.54Z"/>
    <path d="M109.14,5.16c4.22,0,7.31.91,9.25,2.73,1.94,1.82,2.92,4.32,2.92,7.51,0,1.93-.4,3.72-1.19,5.37-.8,1.65-2.12,2.98-3.97,3.99-1.85,1.01-4.37,1.51-7.55,1.51h-2.98v11.66h-6.93V5.16h10.47ZM108.77,10.85h-3.17v9.73h2.3c1.96,0,3.51-.39,4.66-1.17,1.15-.78,1.72-2.04,1.72-3.79,0-3.18-1.84-4.77-5.51-4.77Z"/>
    <path d="M140.68,37.93h-14.92v-3.95l3.99-1.84V10.94l-3.99-1.84v-3.95h14.92v3.95l-3.99,1.84v21.21l3.99,1.84v3.95Z"/>
    <path d="M166.52,28.84c0,2.91-1.05,5.23-3.14,6.96-2.1,1.73-5.07,2.59-8.93,2.59-3.46,0-6.55-.66-9.27-1.97v-6.47c1.56.67,3.17,1.29,4.84,1.86,1.67.57,3.33.85,4.98.85s2.93-.33,3.65-.99c.72-.66,1.08-1.49,1.08-2.5,0-.83-.28-1.53-.85-2.11-.57-.58-1.32-1.12-2.27-1.63-.95-.5-2.04-1.05-3.26-1.63-.77-.37-1.59-.8-2.48-1.31-.89-.5-1.74-1.13-2.55-1.88-.81-.75-1.48-1.66-2-2.73-.52-1.07-.78-2.36-.78-3.86,0-2.94.99-5.23,2.98-6.86,1.99-1.64,4.7-2.46,8.13-2.46,1.71,0,3.34.2,4.87.6,1.53.4,3.15.96,4.87,1.7l-2.25,5.42c-1.5-.61-2.85-1.09-4.04-1.42-1.19-.34-2.42-.5-3.67-.5-1.32,0-2.33.31-3.03.92-.7.61-1.06,1.41-1.06,2.39,0,1.16.52,2.08,1.56,2.75,1.04.67,2.59,1.5,4.64,2.48,1.68.8,3.11,1.62,4.29,2.48,1.18.86,2.09,1.87,2.73,3.03.64,1.16.96,2.6.96,4.32Z"/>
  </g>
</svg>